<?xml version="1.0" encoding="utf-8"?>
<!DOCTYPE svg PUBLIC "-//W3C//DTD SVG 1.1//EN" "http://www.w3.org/Graphics/SVG/1.1/DTD/svg11.dtd">
<svg version="1.1" xmlns="http://www.w3.org/2000/svg" xmlns:xlink="http://www.w3.org/1999/xlink" x="0px" y="0px"
	 width="1681.934px" height="92.16px" viewBox="0 0 1681.934 92.16" enable-background="new 0 0 1681.934 92.16"
	 xml:space="preserve">
<g id="Layer_1">
	<path fill-rule="evenodd" clip-rule="evenodd" fill="#28221E" d="M0,92.16c0-2.166,0-16.293,0-18.459
		c7.188,1.728,64.828,1.364,70.514,0.799c5.187-0.518,4.679-5.034,10.189-4.502c9.916,0.958,20.959-0.712,32.48,0
		c0.811-1.568-1.754-5.026,1.547-5.198c2.021,0.6-0.376,3.676,1.547,4.332c9.28,0,18.561,0,27.841,0
		c2.132-0.539,1.321-1.182,5.396-0.632c4.765-0.681,3.24-1.394,7.752-1.102c4.959,0.321,7.852-1.368,13.146-1.732
		c8.343-0.574,18.344,2.531,25.521-0.434c8.455,3.351,25.545,1.864,39.441,2.166c-0.302-4.212,5.071,0.746,11.139,0.102
		c0.507,5.885,14.666,2.839,21,0.5c6.456,5.019,35.85,4.894,52.75,5.75c24.494,1.239,44.219,4.908,62.75,2.5
		c5.067,2.316,11.469,4.048,17.859,5.012c8.518,1.284,5.757-4.663,12.373-5.632c6.861,1.354,2.166,4.39,13.268,3.37
		c1.546-1.444,4.381-0.705,7.613-1.204c20.568,0.253,50.388,2.831,68.056-0.866c5.58,3.36,10.907,0.468,16.24,0.433
		c4.334-0.028,7.873,2.553,13.147,1.3c0.916-2.917,0.089-2.862,3.881-2.6c7.858,0.544,1.503-0.027,6.125,2.375
		c3.625-0.426-0.391-0.587,4.688-0.197c0-2.88,0,2.881,0,0c0.16,0,0.32,0.279,0.48,0.279c0.609-0.319-0.352-1.064-0.24-1.68
		c0.661-0.139,1.002-0.598,1.68-0.72c0.338,0.688-0.745,1.31,0.24,1.2c0.487-1.475,2.879-2.088,1.68-3.84
		c2.926-2.243,1.583-0.2,2.16-4.12c1.422,0.142,1.265-1.295,1.92-1.92c0.82-0.181,0.305,0.975,1.2,0.72
		c2.364-1.396,4.79-0.599,7.2-0.24c2.822-2.458,5.426-5.134,7.44-8.4c1.501-0.099,1.778-1.422,2.88-1.92
		c2.266,0.064,3.389,0.232,5.04-0.239c0.599,1.08,1.469,1.891,2.88,2.159c1.018-0.319,1.293-1.506,2.4-1.92
		c0.467-0.174,0.6,0.547,1.2,0.48c0.433-0.048,0.869-0.65,1.44-0.72c1.582-0.194,5.211,0.109,5.04,0
		c0.217,0.14-0.223,1.025,0.24,0.96c-0.279,0.04,0.685-1.963,1.2-0.96c1.034,1.891,2.462,3.145,3.84,4.319
		c-0.786,1.203,0.206,1.577,0,3.36c2.218-0.139,1.696,2.465,3.84,2.4c-0.148,1.428,0.671,1.889,1.44,2.399
		c0.994-0.766,1.822-1.698,2.4-2.88c-0.377-0.022-0.832,0.032-0.72-0.479c1.088-1.232,1.917-2.724,3.6-3.36
		c-0.248-1.447,0.532-1.868,1.92-1.68c-0.779,2.146,2.288,1.431,1.68,4.079c2.642-1.342,4.047,1.577,5.52,2.881
		c0.085,1.479-0.811,1.572,0,2.64c4.275,0.357,7.922,1.58,10.08-2.4c0.864-3.349-0.73-5.757,0.96-7.92
		c-0.283-0.037-0.682,0.042-0.72-0.239c0.914-1.069-0.823-3.949,0.24-5.04c0.776-0.297,0.183,0.776,0.96,0.479
		c0.851-0.989,0.865-2.814,2.64-2.88c-0.892-3.14,0.691-5.475-0.48-8.4c2.472-1.386,1.972-4.794,2.4-6.72
		c1.199,0.161,2.171,0.549,2.88,1.2c-0.31,2.789,0.768,4.192,1.92,5.52c-0.54,2.054,1.169,5.228-0.48,6.959
		c1.454,0.18,0.06,1.513,0.48,1.92c1.646,2.274,3.115,4.726,4.08,7.681c1.05-0.17,1.635,0.125,1.92,0.72
		c4.284-1.657,10.879-0.428,14.88-0.24c1.068,3.252,4.516,4.124,5.52,7.44c0.421,0.219,1.198,0.082,1.44,0.479
		c0.266,1.574,1.916,1.765,1.92,3.601c2.344,0.8,2.593-0.169,5.04,0.24c-0.185-0.905,0.293-1.147,0.24-1.921
		c1.524-0.556,2.016-2.144,3.36-2.88c-0.391-3.71,2.456-5.331,4.08-6.239c-0.611-0.024-0.567-0.895-0.24-1.2
		c1.05-0.17,1.635,0.125,1.92,0.72c-0.157-1.618,1.375-0.244,1.68-0.24c1.299,0.02,3.049-1.071,4.56-0.72
		c0.462,0.098,0.189,0.931,0.96,0.72c3.913-0.927,6.99-0.138,11.04-0.479c-0.029,1.069,0.592,1.487,0.72,2.399
		c2.01-0.409,1.757,1.442,2.88,1.92c0.204-0.355,0.604-0.516,1.2-0.479c1.813-2.04,0.6-4.061,0.72-6.72
		c0.035-0.765,0.48-1.497,0.48-2.16c0-1.218-0.716-2.291-0.72-3.36c-0.006-1.849,0.95-3.341,0.48-5.04
		c0.284-0.276,0.848-0.271,1.44-0.24c-0.114-2.193,0.581-3.578,2.16-4.08c-0.369-0.831-0.212-2.188-0.24-3.36
		c2.451-0.189,1.302-3.978,3.6-4.32c-0.402-1.89,0.217-4.274,1.92-4.8c-2.548-0.25-2.052-3.432-2.16-5.52
		c3.008-1.489,0.823-5.771,2.4-8.16c-0.555-0.245-0.497-1.103-0.48-1.92c3.225-2.048,1.26-8.882,1.68-13.44
		c0.496-0.308,1.335-0.994,1.92-0.48c-1.352,2.068,1.286,5.633-0.48,8.16c0.623,0.498,1.588,0.652,1.92,1.44
		c0.282,2.785-0.236,4.885,1.68,6c0.672,2.382-0.211,5.625,0.24,7.2c0.167,0.473,1.339-0.06,1.44,0.48
		c0.291,3.04,0.441,4.908-1.2,6.72c1.202,0.558,1.626,1.894,1.44,3.84c1.776,0.932,2.054,2.393,3.6,3.84
		c-0.689,2.414-0.516,4.671,1.44,5.76c0.368,1.168-0.696,0.904-0.72,1.68c3.29,1.121,1.874,4.723,1.92,7.2
		c0.006,0.316,0.682,0.6,0.72,0.96c0.066,0.626-0.37,1.554-0.24,2.4c0.207,1.353,0.409,2.254,0,3.6c2.751,0.817,5.607,0.771,8.4,0
		c0.696-1.653,0.024-4.891,1.92-6.239c-0.331-0.31-0.238-1.043-0.24-1.681c1.593-0.967,1.966-3.153,3.84-3.84
		c-1.053-2.069,0.554-4.454-0.24-6.48c1.558-0.202,1.147-2.373,2.4-2.88c-0.472-0.836-0.787-2.44,0-3.36
		c0.679-0.199,0.622,0.338,1.2,0.24c0.19,0.904-0.121,2.753,0,4.32c2.129,1.235,2.24,5.436,1.44,8.16
		c2.006,0.153,1.641,2.679,3.36,3.12c0.231,0.632,0.464,2.056,0,2.64c0.911,0.21,1.372,0.868,1.92,1.44
		c-0.115,1.68,0.54,2.886,0,4.32c1.259,0.597,2.663,1.161,4.32,0.72c0.719,0.98,0.708,1.875,1.2,2.64
		c-0.041-0.521,0.851-0.108,1.2-0.24c-0.093,2.893,1.983,4.354,2.16,6.24c1.057-1.454,1.783,1.356,2.4,1.92
		c3.16-1.319,4.39-4.57,6.96-6.479c0.64,0,1.28,0,1.92,0c0.459-2.104,4.132-2.665,4.08,0.239c2.363-0.701,3.121,0.519,4.32,1.921
		c3.126,0.406,3.741-1.7,4.56-3.601c0.68-0.587,1.869-0.295,2.4-0.479c0.476-0.324-0.076-1.676,0.72-1.681
		c7.326-0.573,15.271,0.111,23.04-0.239c0.017,1.256,0.78,1.55,1.68,2.399c-0.121,2.92,1.933,3.668,2.88,5.521c0.72,0,1.44,0,2.16,0
		c0.186-1.975,1.728-2.593,2.4-4.08c0.116-0.756-0.737-0.544-0.48-1.44c1.929-1.031,2.701-3.219,4.56-4.32
		c2.988,0.501,6.749,0.028,10.56,0.48c0.493,0.227,0.204,1.236,0.96,1.2c2.284,0.264,4.326,0.37,5.521,2.16
		c0.029-0.53,1.018-0.103,1.439-0.24c1.642-2.123,0.082-4.422,0.24-6.72c0.058-0.839,0.673-1.619,0.72-2.4
		c0.195-3.242-0.727-6.833-0.239-10.56c0.595,0.035,1.164,0.045,1.199-0.48c-0.355-0.044-0.22-0.58-0.239-0.96
		c2.791-2.328,4.349-5.891,7.68-7.68c-0.032-0.591-0.036-1.156,0.24-1.44c3.053-1.577,3.914,2.647,5.04,3.6
		c0.335,0.284,1.263,0.282,1.439,0.48c0.204,0.229,0.028,0.898,0.24,1.2c0.202,0.287,0.693,0.639,0.96,0.96
		c0.412,0.497,0.536,1.224,0.72,1.44c0.133,0.156,0.832-0.159,0.96,0c0.159,0.197-0.14,0.746,0,0.96
		c0.553,0.844,2.086,1.16,1.92,2.16c0.106,0.906-0.473,1.126-0.72,1.68c1.292,3.207,0.091,6.534,0.72,9.36
		c1.079,0.922,1.888,2.112,2.641,3.36c6.479,0.22,13.009-0.445,19.2,0.24c-1.58,3.059,3.375,2.983,3.84,5.52
		c1.733-0.367,3.747-0.673,5.279,0c0.719-2.816,5.4-3.543,6.24-0.24c0.795,0.017,2.117,0.271,2.88,0.96
		c-0.402,1.52-0.526,3.54,0.48,4.801c2.113,0.18,3.232-0.097,5.04,0.239c1.073-1.326,2.361-2.438,3.12-4.08
		c2.306-0.491,2.965,1.21,3.359,1.921c1.671,0.374,2.484-0.035,4.08-0.24c0.118-3.844,0.682-4.745,0.24-8.4
		c1.052-0.96,2.929-2.063,1.92-4.319c2.097-1.744,3.622-4.059,5.521-6c5.014-0.389,7.982,0.23,12,0
		c0.553-0.074,0.267,0.693,0.72,0.72c-0.321-1.281,1.406-0.514,2.16-0.72c1.587,2.15,4.848,3.437,4.08,7.199
		c2.006,0.153,1.533,2.786,3.359,3.12c-0.055,2.245-0.251,4.145,0.24,6.48c2.872,0.605,6.414,0.416,10.56,0.239
		c1.137-1.663,2.25-3.35,3.841-4.56c-0.131-1.33,0.043-2.356,0.96-2.64c4.877-0.132,8.891-0.317,13.439,0
		c0.504,1.373,2.133,2.775,3.36,2.64c0.372-5.105,0.231-12.213,0.24-19.2c0.898-0.221,1.262-0.978,2.159-1.2
		c-0.162-0.877-0.334-1.745-0.239-2.88c2.356-1.483,1.764-5.916,4.8-6.72c-0.2-1.723-0.112-2.407,0-4.32
		c-0.649-0.551-1.55-0.851-1.92-1.68c0.607-2.272,1.759-4.001,3.359-5.28c0.813-4.862,0.05-9.739,0.48-14.4
		c0.929,0.208,1.038-0.401,1.439-0.72c0.232-1.215-0.439-3.082,0.24-4.56c0.4,0,0.8,0,1.2,0c0,0.08,0,0.16,0,0.24
		c-0.093,1.867-0.104,4.648,1.92,6c-0.285,5.01,0.262,7.44,0,12.96c0.722,2.622,3.519,3.196,3.12,5.52
		c-0.184,1.071-1.647,1.578-1.92,2.88c-0.503,2.399,1.381,4.451,3.12,6.24c-0.165,2.885,2.232,3.208,1.68,6.48
		c0.765,0.595,1.388,1.333,1.92,2.16c-0.867,3.05,0.115,8.79,0,13.2c-0.041,1.586-1.031,4.467,1.681,3.84
		c-0.386-2.817-1.635-12.127,1.92-14.399c0.824,0.105,1.345-0.095,1.92-0.24c0.61-0.35,0.465-1.455,1.199-1.68
		c2.577,0.515,2.994-1.911,4.561-1.92c1.694-0.01,1.95,2.441,4.56,1.92c0.457,2.423,3.443,2.316,4.801,3.84
		c0.572,6.212-0.049,11.585,0.479,16.56c4.12,0.868,8.417,0.129,11.76,0.48c0.321,1.118,1.191,1.688,2.16,2.16
		c1.292,1.671,2.086,4.352,4.32,2.64c0.298-0.229,0.954-0.46,1.2-0.72c2.284-2.411,3.551-7.369,8.399-6.24
		c0.391,1.49,2.788,1.566,1.92,3.6c2.14-0.539,1.463,1.737,2.641,2.16c1.327,0.611,3.116-0.188,4.08-0.72
		c-0.332-2.267-0.221-7.115,2.64-8.64c5.52,0.497,10.829-0.153,15.84,0.239c0.612,0.828,1.464,1.416,1.92,2.4
		c-0.083,1.763,0.027,3.333,0.48,4.56c1.26,0.717,1.49,2.201,3.12,2.641c1.169,0.314,2.75-0.314,4.08,0
		c1.53,0.362,1.99,1.398,3.359,1.68c0.893,1.508,1.652,3.148,3.12,4.08c2.267-1.099,3.096,0.627,4.56,0
		c0.411,0.389,0.094,1.507,0.961,1.44c0.868-0.002,2.073,0.063,3.6,0.239c0.803,0.718,0.187,2.985,1.92,2.641
		c1.363-0.271,1.77-0.1,1.77-0.1c7.661-0.001,4.648-4.23,7.511-4.273c9.415-0.14,18.212-1.706,29.387-1.032
		c2.962-0.652,2.645-0.14,6.188-0.466c-0.073,2.352,2.931-0.021,4.64,1.332c7.467-0.167,13.015-4.176,17.014-1.534
		c5.679-0.581,7.375,1.067,11.602,1.3c6.371-1.531,10.355-1.547,19.334-1.733c2.406,0.817,10.849,4.417,15.639,3.899
		c8.268-1.725,7.072,2.662,16.842,0.336c0,0.866,5-1.268,5-0.401c4.857-2.911,10.74-2.446,19.747-3.032
		c5.437-2.489-0.323-0.572,6.96-1.964c4.932,0.271,4.273-1.329,6.961,0.198c13.031,0.436,25.549-0.586,37.121,0
		c5.266,0.267,9.518,1.391,14.693,0.867c3.562-0.361,6.547,4.965,10.054,4.4c1.71-0.275,4.44,0.203,6.187,0
		c2.676-0.312,4.809-1.55,6.961-1.732c13.096-1.114,16.527-3.336,26.294-2.535c1.85-2.863,8.501,4.164,10.413,1.336
		c12.341-2.329,29.709,0.96,39.081-3.032c9.264,2.615,24.596,0.242,33.255-0.434c3.275,0.042,2.531,2.336,5.413,2.6
		c4.494-0.205,5.158-2.941,10.054-1.733c2.701,3.91,13.356,4.072,19.335,1.733c17.675,3.786,35.407,0.013,56.055-0.134
		c2.77,0.759,13.787,0.619,16.64,1.332c10.884,0.898,8.307-0.744,16.24-1.498c4.251,0.94,3.511-0.324,7.733,0.632
		c10.054,0,20.107,0,30.162,0c1.819-0.337,0.181,0.191,3.866-0.198c5.595,1.053,13.342-1.021,16.508,1.479
		c16.081-0.234,22.795-1.526,39.174-0.15c0,21.372,0-2.913,0,18.459"/>
</g>
</svg>
